# xmcd CD database file
#
# Track frame offsets:
#	150
#	21937
#	40212
#	61822
#	81507
#	100487
#	119557
#	138387
#	153925
#	169342
#
# Disc length: 2505 seconds
#
# Revision: 0
# Processed by: cddbd v1.5.1PL0 Copyright (c) Steve Scherf et al.
# Submitted via: CDex 1.51
#
DISCID=8809c70a
DTITLE=樋口了一 - あの頃の君がいるなら
DYEAR=1993
DGENRE=JPop
TTITLE0=いまでも
TTITLE1=帰らないSUNDAY
TTITLE2=遠い夏のロザリー
TTITLE3=ちょっとつれないTelephone Girl
TTITLE4=僕はここにいる 〜Something to me〜
TTITLE5=MR.カウンセラー
TTITLE6=Strawberry Drive
TTITLE7=マリッジ・ブルー
TTITLE8=ラジオにのせたラブレター
TTITLE9=まわる 〜あの頃の君がいるなら〜
EXTD=YEAR: 1993
EXTT0=
EXTT1=
EXTT2=
EXTT3=
EXTT4=
EXTT5=
EXTT6=
EXTT7=
EXTT8=
EXTT9=
PLAYORDER=
